<svg width="422" height="851" viewBox="0 0 422 851" fill="none" xmlns="http://www.w3.org/2000/svg">
<g filter="url(#filter0_f_3204_41419)">
<path d="M-270.004 547.829C-246.741 700.885 -82.0802 787.357 74.1242 756.024C230.329 724.69 214.452 782.763 255.378 724.866C308.173 650.178 60.3087 597.418 125.966 533.086C178.458 481.653 250.46 589.939 314.086 552.388C415.559 492.5 5.16757 416.331 100.248 347.106C164.582 300.266 257.805 428.504 303.658 364.272C326.32 332.527 331.532 303.746 320.421 266.999C295.606 184.929 149.08 351.45 95.2736 284.127C43.8492 219.784 211.38 136.399 150.587 80.3691C116.204 48.6804 79.782 48.4862 32.3114 52.8417C-111.473 66.0339 123.467 394.89 -20.1664 409.758C-97.1449 417.725 -124.17 303.991 -198.017 327.21C-286.319 354.974 -283.522 458.887 -270.004 547.829Z" stroke="#FC7D47" stroke-opacity="0.4" stroke-width="0.643551"/>
<path fill-rule="evenodd" clip-rule="evenodd" d="M74.0716 745.652C-74.0707 775.368 -230.233 693.359 -252.295 548.202C-265.116 463.851 -267.769 365.301 -184.024 338.97C-113.988 316.95 -88.3579 424.814 -15.3525 417.257C120.867 403.158 -101.946 91.2742 34.4168 78.7629C79.4373 74.6323 113.98 74.8164 146.588 104.87C204.244 158.008 45.3591 237.089 94.1294 298.111C145.158 361.959 284.122 204.033 307.656 281.867C318.194 316.718 313.251 344.013 291.759 374.12C248.272 435.036 159.86 313.417 98.8467 357.839C8.67397 423.491 397.884 495.73 301.648 552.526C241.306 588.139 173.02 485.442 123.238 534.22C60.9691 595.233 296.041 645.269 245.97 716.102C207.156 771.011 222.214 715.935 74.0716 745.652Z" stroke="#FC7D47" stroke-opacity="0.4" stroke-width="0.610335"/>
<path fill-rule="evenodd" clip-rule="evenodd" d="M74.015 735.282C-66.0652 763.381 -213.729 685.835 -234.591 548.578C-246.713 468.818 -249.222 375.631 -170.034 350.733C-103.81 329.91 -79.5748 431.905 -10.5424 424.759C118.264 411.427 -92.4235 116.517 36.5183 104.686C79.0887 100.78 111.751 100.954 142.585 129.372C197.103 179.619 46.8651 254.396 92.9812 312.097C141.233 372.471 272.634 223.139 294.888 296.737C304.852 329.691 300.178 355.501 279.855 383.969C238.735 441.571 155.135 326.57 97.4418 368.575C12.1764 430.654 380.206 498.961 289.207 552.667C232.148 586.341 167.579 489.233 120.505 535.357C61.6256 593.049 283.904 640.362 236.559 707.341C199.857 759.261 214.095 707.183 74.015 735.282Z" stroke="#FC7D47" stroke-opacity="0.4" stroke-width="0.57712"/>
<path fill-rule="evenodd" clip-rule="evenodd" d="M73.9604 724.908C-58.0577 751.391 -197.223 678.308 -216.884 548.95C-228.309 473.78 -230.673 385.956 -156.043 362.491C-93.6305 342.867 -70.7898 438.991 -5.73047 432.257C115.663 419.692 -82.899 141.755 38.6217 130.605C78.7421 126.924 109.525 127.088 138.584 153.871C189.964 201.225 48.3731 271.699 91.8351 326.079C137.31 382.978 261.148 242.24 282.121 311.603C291.512 342.66 287.107 366.985 267.954 393.815C229.201 448.101 150.412 339.719 96.0389 379.307C15.6809 437.813 362.529 502.189 276.767 552.803C222.993 584.54 162.139 493.021 117.775 536.49C62.2841 590.861 271.77 635.452 227.149 698.575C192.56 747.508 205.979 698.426 73.9604 724.908Z" stroke="#FC7D47" stroke-opacity="0.4" stroke-width="0.543905"/>
<path fill-rule="evenodd" clip-rule="evenodd" d="M73.9048 714.535C-50.0511 739.4 -180.718 670.78 -199.178 549.322C-209.905 478.742 -212.125 396.282 -142.053 374.25C-83.4516 355.824 -62.0057 446.078 -0.91945 439.755C113.061 427.957 -73.3754 166.993 40.7242 156.525C78.3945 153.069 107.297 153.223 134.582 178.369C182.824 222.832 49.8801 289.002 90.6879 340.061C133.386 393.485 249.661 261.342 269.354 326.47C278.171 355.63 274.035 378.469 256.052 403.66C219.665 454.632 145.687 352.869 94.635 390.038C19.1843 444.971 344.851 505.416 264.327 552.94C213.836 582.738 156.699 496.808 115.044 537.622C62.9415 588.673 259.634 630.541 217.739 689.809C185.262 735.754 197.861 689.67 73.9048 714.535Z" stroke="#FC7D47" stroke-opacity="0.4" stroke-width="0.510689"/>
<path fill-rule="evenodd" clip-rule="evenodd" d="M73.8512 704.165C-42.0427 727.413 -164.21 663.256 -181.47 549.697C-191.5 483.708 -193.575 406.611 -128.06 386.012C-73.2708 368.785 -53.2197 453.169 3.89351 447.257C110.46 436.227 -63.8499 192.236 42.8287 182.448C78.0489 179.216 105.072 179.361 130.582 202.872C175.687 244.443 51.389 306.309 89.5428 354.047C129.463 403.997 238.177 280.448 256.588 341.34C264.832 368.603 260.965 389.957 244.151 413.51C210.131 461.166 140.965 366.022 93.2332 400.774C22.6897 452.134 327.175 508.647 251.888 553.08C204.681 580.94 151.26 500.599 112.315 538.759C63.601 586.49 247.501 625.634 208.33 681.048C177.965 724.004 189.745 680.917 73.8512 704.165Z" stroke="#FC7D47" stroke-opacity="0.4" stroke-width="0.477474"/>
<path fill-rule="evenodd" clip-rule="evenodd" d="M73.7947 693.795C-34.0371 715.426 -147.706 655.732 -163.766 550.073C-173.098 488.674 -175.028 416.941 -114.071 397.774C-63.0928 381.746 -44.4366 460.259 8.70354 454.759C107.857 444.496 -54.3274 217.478 44.9302 208.371C77.7003 205.365 102.843 205.499 126.579 227.374C168.546 266.053 52.8951 323.615 88.3946 368.033C125.538 414.508 226.689 299.554 243.82 356.21C251.49 381.577 247.892 401.445 232.248 423.359C200.594 467.7 136.24 379.175 91.8283 411.509C26.1922 459.297 309.496 511.879 239.446 553.22C195.524 579.143 145.819 504.39 109.582 539.895C64.2575 584.306 235.364 620.727 198.919 672.286C170.666 712.254 181.626 672.165 73.7947 693.795Z" stroke="#FC7D47" stroke-opacity="0.4" stroke-width="0.444259"/>
<path fill-rule="evenodd" clip-rule="evenodd" d="M73.7371 683.423C-26.0325 703.437 -131.203 648.206 -146.062 550.447C-154.696 493.639 -156.483 427.268 -100.083 409.535C-52.9159 394.705 -35.6545 467.348 13.5126 462.259C105.253 452.763 -44.8058 242.719 47.0308 234.292C77.3508 231.511 100.614 231.635 122.575 251.875C161.404 287.662 54.4001 340.92 87.2455 382.017C121.612 425.017 215.2 318.658 231.05 371.078C238.147 394.548 234.818 412.931 220.343 433.207C191.056 474.233 131.513 392.326 90.4225 422.243C29.6937 466.457 291.816 515.108 227.004 553.359C186.365 577.343 140.376 508.179 106.849 541.03C64.913 582.12 223.227 615.818 189.506 663.523C163.366 700.502 173.507 663.41 73.7371 683.423Z" stroke="#FC7D47" stroke-opacity="0.4" stroke-width="0.411044"/>
<path fill-rule="evenodd" clip-rule="evenodd" d="M73.6835 673.052C-18.024 691.448 -114.696 640.68 -128.354 550.82C-136.291 498.603 -137.933 437.595 -86.0904 421.295C-42.735 407.663 -26.8685 474.437 18.3256 469.759C102.653 461.03 -35.2803 267.959 49.1352 260.214C77.0052 257.657 98.3887 257.771 118.575 276.375C154.267 309.27 55.9091 358.225 86.1003 396.001C117.69 435.527 203.715 337.762 218.284 385.946C224.808 407.52 221.748 424.417 208.443 443.054C181.523 480.765 126.791 405.477 89.0206 432.976C33.1991 473.618 274.14 518.337 214.565 553.497C177.21 575.543 134.938 511.969 104.12 542.165C65.5725 579.934 211.094 610.91 180.097 654.759C156.07 688.75 165.391 654.656 73.6835 673.052Z" stroke="#FC7D47" stroke-opacity="0.4" stroke-width="0.377828"/>
<path fill-rule="evenodd" clip-rule="evenodd" d="M73.6299 662.682C-10.0155 679.461 -98.1892 633.156 -110.646 551.196C-117.885 503.569 -119.383 447.925 -72.0981 433.058C-32.5542 420.624 -18.0825 481.528 23.1385 477.261C100.052 469.3 -25.7548 293.201 51.2397 286.137C76.6596 283.805 96.1632 283.909 114.575 300.878C147.129 330.881 57.418 375.532 84.9552 409.987C113.768 446.038 192.23 356.868 205.519 400.816C211.469 420.493 208.678 435.905 196.543 452.904C171.989 487.299 122.069 418.63 87.6187 443.712C36.7045 480.781 256.464 521.569 202.126 553.637C168.055 573.746 129.499 515.76 101.39 543.301C66.2319 577.751 198.96 606.003 170.689 645.997C148.773 677 157.275 645.903 73.6299 662.682Z" stroke="#FC7D47" stroke-opacity="0.4" stroke-width="0.344613"/>
<path fill-rule="evenodd" clip-rule="evenodd" d="M73.5744 652.308C-2.009 667.47 -81.6841 625.628 -92.9406 551.568C-99.4817 508.531 -100.835 458.25 -58.1078 444.816C-22.3753 433.581 -9.29843 488.614 27.9495 484.759C97.45 477.565 -16.2312 318.44 53.3422 312.056C76.312 309.949 93.9358 310.043 110.573 325.376C139.989 352.488 58.925 392.835 83.808 423.969C109.843 456.545 180.744 375.97 192.751 415.682C198.127 433.463 195.606 447.389 184.64 462.75C162.453 493.83 117.344 431.779 86.2148 454.443C40.208 487.939 238.786 524.796 189.686 553.774C158.899 571.944 124.059 519.547 98.6592 544.434C66.8894 575.563 186.825 601.092 161.278 637.232C141.475 665.247 149.158 637.147 73.5744 652.308Z" stroke="#FC7D47" stroke-opacity="0.4" stroke-width="0.311398"/>
<path fill-rule="evenodd" clip-rule="evenodd" d="M73.5207 641.936C5.99948 655.481 -65.1771 618.102 -75.2329 551.942C-81.0763 513.496 -82.2854 468.578 -44.1156 456.576C-12.1944 446.54 -0.512433 495.703 32.7625 492.259C94.8497 485.832 -6.70572 343.68 55.4466 337.977C75.9663 336.095 91.7103 336.179 106.573 349.877C132.851 374.096 60.434 410.14 82.6628 437.953C105.921 467.055 169.259 395.074 179.986 430.55C184.788 446.434 182.535 458.875 172.74 472.597C152.919 500.362 112.622 444.93 84.8129 465.177C43.7134 495.1 221.11 528.025 177.247 553.912C149.744 570.144 118.62 523.336 95.9299 545.569C67.5488 573.377 174.691 596.183 151.87 628.468C134.179 653.495 141.042 628.392 73.5207 641.936Z" stroke="#FC7D47" stroke-opacity="0.4" stroke-width="0.278183"/>
<path fill-rule="evenodd" clip-rule="evenodd" d="M73.4642 631.565C14.005 643.492 -48.673 610.576 -57.5281 552.315C-62.6738 518.46 -63.7385 478.905 -30.1262 468.337C-2.01649 459.499 8.27066 502.792 37.5725 499.759C92.2464 494.099 2.81686 368.92 57.5481 363.899C75.6178 362.241 89.4819 362.315 102.57 374.377C125.711 395.705 61.94 427.445 81.5147 451.937C101.996 477.564 157.771 414.178 167.217 445.418C171.446 459.405 169.462 470.361 160.836 482.445C143.382 506.894 107.897 458.081 83.408 475.91C47.2159 502.261 203.431 531.255 164.806 554.051C140.586 568.345 113.179 527.126 93.1977 546.703C68.2053 571.192 162.555 591.275 142.458 619.704C126.88 641.743 132.923 619.638 73.4642 631.565Z" stroke="#FC7D47" stroke-opacity="0.4" stroke-width="0.244967"/>
<path fill-rule="evenodd" clip-rule="evenodd" d="M73.4106 621.193C22.0135 631.503 -32.1659 603.05 -39.8204 552.689C-44.2684 523.424 -45.1887 489.233 -16.1339 480.097C8.16436 472.457 17.0567 509.88 42.3855 507.259C89.6461 502.367 12.3424 394.161 59.6526 389.82C75.2722 388.387 87.2564 388.451 98.5696 398.878C118.573 417.314 63.4489 444.75 80.3695 465.921C98.0737 488.073 146.286 433.282 154.451 460.286C158.107 472.377 156.392 481.847 148.936 492.292C133.848 513.427 103.174 471.232 82.0061 486.644C50.7213 509.421 185.755 534.484 152.367 554.189C131.432 566.545 107.74 530.915 90.4684 547.838C68.8647 569.006 150.421 586.366 133.05 610.941C119.583 629.991 124.808 610.883 73.4106 621.193Z" stroke="#FC7D47" stroke-opacity="0.4" stroke-width="0.211752"/>
<path fill-rule="evenodd" clip-rule="evenodd" d="M73.355 610.819C30.0201 619.512 -15.6608 595.522 -22.1146 553.061C-25.8649 528.386 -26.6409 499.558 -2.14362 491.856C18.3433 485.414 25.8407 516.967 47.1965 514.757C87.0438 510.632 21.8659 419.399 61.7551 415.739C74.9246 414.531 85.029 414.585 94.5676 423.376C111.433 438.92 64.9559 462.053 79.2223 479.904C94.1495 498.581 134.799 452.384 141.684 475.152C144.766 485.346 143.32 493.331 137.033 502.138C124.313 519.957 98.4501 484.381 80.6022 497.375C54.2247 516.58 168.077 537.711 139.926 554.326C122.275 564.743 102.3 534.702 87.7371 548.971C69.5222 566.818 138.286 581.455 123.639 602.175C112.285 618.237 116.69 602.126 73.355 610.819Z" stroke="#FC7D47" stroke-opacity="0.4" stroke-width="0.178537"/>
<path fill-rule="evenodd" clip-rule="evenodd" d="M73.3014 600.449C38.0285 607.525 0.846204 587.999 -4.4069 553.436C-7.45949 533.352 -8.0911 509.888 11.8487 503.618C28.5241 498.375 34.6268 524.058 52.0094 522.258C84.4435 518.901 31.3914 444.642 63.8595 441.663C74.579 440.679 82.8035 440.723 90.5675 447.879C104.295 460.531 66.4649 479.36 78.0772 493.89C90.2272 509.092 123.315 471.489 128.918 490.022C131.427 498.32 130.25 504.819 125.133 511.987C114.779 526.492 93.7278 497.534 79.2003 508.111C57.7301 523.743 150.402 540.943 127.488 554.466C113.12 562.945 96.8611 538.493 85.0078 550.107C70.1817 564.634 126.152 576.548 114.231 593.414C104.989 606.488 108.574 593.374 73.3014 600.449Z" stroke="#FC7D47" stroke-opacity="0.4" stroke-width="0.145321"/>
</g>
<defs>
<filter id="filter0_f_3204_41419" x="-366" y="-2" width="789.712" height="854.162" filterUnits="userSpaceOnUse" color-interpolation-filters="sRGB">
<feFlood flood-opacity="0" result="BackgroundImageFix"/>
<feBlend mode="normal" in="SourceGraphic" in2="BackgroundImageFix" result="shape"/>
<feGaussianBlur stdDeviation="1" result="effect1_foregroundBlur_3204_41419"/>
</filter>
</defs>
</svg>
