<svg width="358" height="720" viewBox="0 0 358 720" fill="none" xmlns="http://www.w3.org/2000/svg">
<path d="M-303.072 414.269C-323.399 567.743 -189.373 696.69 -30.6256 710.144C128.121 723.598 96.6845 774.943 152.129 730.75C223.652 673.741 0.321439 553.975 81.31 510.496C146.059 475.736 185.02 599.801 256.592 581.476C370.737 552.251 -2.1515 364.694 108.457 324.72C183.299 297.671 237.077 446.814 299.019 397.911C329.632 373.742 342.66 347.554 342.234 309.167C341.281 223.432 154.142 342.505 121.237 262.851C89.7885 186.723 273.924 153.347 231.16 82.5902C206.974 42.5728 172.05 32.2328 125.247 23.1821C-16.5145 -4.23166 117.435 377.083 -24.6487 351.319C-100.797 337.512 -95.0447 220.752 -172.437 222.464C-264.978 224.511 -291.26 325.085 -303.072 414.269Z" stroke="#ADADAD" stroke-opacity="0.5" stroke-width="0.643551"/>
<path fill-rule="evenodd" clip-rule="evenodd" d="M-27.7854 700.169C-178.339 687.41 -305.449 565.118 -286.171 419.565C-274.968 334.984 -250.043 239.601 -162.277 237.66C-88.8797 236.036 -94.3349 346.77 -22.117 359.864C112.633 384.298 -14.4027 22.6642 120.042 48.6631C164.429 57.2467 197.551 67.053 220.489 105.005C261.045 172.11 86.4138 203.763 116.239 275.962C147.446 351.505 324.926 238.578 325.83 319.888C326.234 356.294 313.878 381.13 284.845 404.051C226.101 450.43 175.098 308.985 104.119 334.638C-0.780927 372.549 352.862 550.425 244.608 578.142C176.73 595.521 139.78 477.859 78.3729 510.826C1.56438 552.06 213.368 665.645 145.536 719.712C92.9539 761.624 122.768 712.929 -27.7854 700.169Z" stroke="#ADADAD" stroke-opacity="0.5" stroke-width="0.610335"/>
<path fill-rule="evenodd" clip-rule="evenodd" d="M-24.9482 690.194C-167.308 678.129 -287.5 562.492 -269.272 424.86C-258.679 344.882 -235.11 254.691 -152.121 252.855C-82.7176 251.319 -87.876 356.026 -19.5883 368.409C107.829 391.512 -12.2937 49.5594 114.834 74.1434C156.806 82.2598 188.125 91.5325 209.814 127.419C248.164 190.872 83.0362 220.802 111.239 289.072C140.747 360.504 308.569 253.723 309.423 330.608C309.805 365.032 298.121 388.517 270.669 410.191C215.121 454.045 166.894 320.299 99.7778 344.555C0.586701 380.403 334.984 548.599 232.621 574.807C168.437 591.241 133.498 479.982 75.4328 511.154C2.80438 550.145 203.081 657.548 138.941 708.673C89.2204 748.304 117.412 702.259 -24.9482 690.194Z" stroke="#ADADAD" stroke-opacity="0.5" stroke-width="0.57712"/>
<path fill-rule="evenodd" clip-rule="evenodd" d="M-22.1089 680.217C-156.276 668.846 -269.55 559.865 -252.371 430.155C-242.388 354.78 -220.175 269.779 -141.962 268.048C-76.5535 266.601 -81.415 365.282 -17.0575 376.952C103.026 398.726 -10.1828 76.4534 109.629 99.6225C149.185 107.272 178.701 116.011 199.142 149.832C235.284 209.633 79.6605 237.841 106.24 302.181C134.05 369.502 292.213 268.866 293.018 341.326C293.378 373.77 282.367 395.902 256.494 416.329C204.143 457.66 158.692 331.611 95.4386 354.471C1.95629 388.256 317.108 546.771 220.636 571.471C160.146 586.959 127.218 482.104 72.4948 511.482C4.04633 548.229 192.797 649.45 132.348 697.632C85.4888 734.983 112.058 691.588 -22.1089 680.217Z" stroke="#ADADAD" stroke-opacity="0.5" stroke-width="0.543905"/>
<path fill-rule="evenodd" clip-rule="evenodd" d="M-19.2707 670.239C-145.244 659.563 -251.601 557.237 -235.471 435.448C-226.097 364.676 -205.241 284.866 -131.805 283.241C-70.3905 281.883 -74.9551 374.537 -14.5278 385.494C98.2228 405.938 -8.07289 103.347 104.422 125.101C141.562 132.283 169.276 140.488 188.469 172.244C222.404 228.393 76.2839 254.878 101.24 315.29C127.352 378.499 275.856 284.009 276.612 352.044C276.95 382.506 266.611 403.287 242.318 422.467C193.165 461.273 150.489 342.922 91.0984 364.386C3.3249 396.108 299.231 544.943 208.65 568.135C151.854 582.677 120.937 484.225 69.5557 511.809C5.28729 546.311 182.511 641.352 125.754 686.591C81.7562 721.661 106.703 680.916 -19.2707 670.239Z" stroke="#ADADAD" stroke-opacity="0.5" stroke-width="0.510689"/>
<path fill-rule="evenodd" clip-rule="evenodd" d="M-16.4315 660.266C-134.212 650.284 -233.651 554.613 -218.57 440.745C-209.806 374.576 -190.307 299.957 -121.646 298.438C-64.2264 297.168 -68.4941 383.796 -11.997 394.04C93.4202 413.155 -5.96197 130.244 99.2162 150.583C133.941 157.298 159.853 164.97 177.797 194.66C209.525 247.157 72.9082 271.92 96.2412 328.402C120.655 387.5 259.5 299.156 260.207 362.766C260.523 391.247 250.857 410.676 228.144 428.608C182.187 464.891 142.287 354.237 86.7593 374.305C4.69451 403.964 281.355 543.119 196.666 564.802C143.564 578.398 114.657 486.349 66.6177 512.139C6.52928 544.398 172.226 633.257 119.161 675.554C78.0247 708.342 101.349 670.248 -16.4315 660.266Z" stroke="#ADADAD" stroke-opacity="0.5" stroke-width="0.477474"/>
<path fill-rule="evenodd" clip-rule="evenodd" d="M-13.5942 650.29C-123.181 641.003 -215.703 551.987 -201.671 446.04C-193.517 384.474 -175.374 315.046 -111.49 313.633C-58.0643 312.451 -62.0352 393.053 -9.46825 402.584C88.6157 420.369 -3.85302 157.139 94.0085 176.063C126.318 182.311 150.427 189.449 167.123 217.074C196.644 265.919 69.5306 288.959 91.2404 341.512C113.956 396.499 243.142 314.301 243.8 373.486C244.094 399.985 235.1 418.063 213.967 434.748C171.208 468.506 134.083 365.55 82.4181 384.222C6.06215 411.818 263.476 541.292 184.679 561.467C135.271 574.117 108.375 488.472 63.6777 512.468C7.76928 542.483 161.94 625.16 112.565 664.515C74.2911 695.022 95.9928 659.578 -13.5942 650.29Z" stroke="#ADADAD" stroke-opacity="0.5" stroke-width="0.444259"/>
<path fill-rule="evenodd" clip-rule="evenodd" d="M-10.758 640.314C-112.152 631.72 -197.756 549.36 -184.773 451.334C-177.229 394.372 -160.442 330.134 -101.334 328.827C-51.9032 327.733 -55.5772 402.309 -6.94046 411.128C83.8102 427.583 -1.74506 184.033 88.7997 201.543C118.693 207.323 141 213.928 156.448 239.487C183.761 284.68 66.152 305.998 86.2387 354.622C107.256 405.498 226.783 329.445 227.392 384.205C227.664 408.723 219.343 425.449 199.79 440.886C160.227 472.121 125.878 376.862 78.0759 394.138C7.42879 419.671 245.597 539.465 172.691 558.132C126.977 569.836 102.092 490.594 60.7366 512.796C9.00829 540.566 151.652 617.062 105.969 653.475C70.5566 681.701 90.6357 648.907 -10.758 640.314Z" stroke="#ADADAD" stroke-opacity="0.5" stroke-width="0.411044"/>
<path fill-rule="evenodd" clip-rule="evenodd" d="M-7.91873 630.338C-101.119 622.439 -179.806 546.734 -167.872 456.63C-160.937 404.27 -145.507 345.223 -91.176 344.021C-45.7392 343.016 -49.1162 411.566 -4.40972 419.672C79.0076 434.798 0.365859 210.928 83.594 227.023C111.072 232.336 131.576 238.407 145.775 261.901C170.882 303.442 62.7763 323.037 81.2399 367.732C100.559 414.497 210.428 344.589 210.987 394.924C211.237 417.462 203.588 432.836 185.615 447.026C149.25 475.737 117.676 388.175 73.7368 404.055C8.7984 427.524 227.721 537.639 160.706 554.797C118.686 565.555 95.8126 492.717 57.7986 513.125C10.2503 538.651 141.367 608.966 99.3761 642.436C66.825 668.381 85.2816 638.237 -7.91873 630.338Z" stroke="#ADADAD" stroke-opacity="0.5" stroke-width="0.377828"/>
<path fill-rule="evenodd" clip-rule="evenodd" d="M-5.07952 620.364C-90.0865 613.16 -161.856 544.11 -150.971 461.927C-144.646 414.17 -130.572 360.314 -81.0175 359.218C-39.5751 358.301 -42.6553 420.824 -1.87899 428.218C74.205 442.014 2.47677 237.825 78.3882 252.505C103.451 257.351 122.152 262.888 135.103 284.317C158.003 322.206 59.4007 340.078 76.2411 380.844C93.8614 423.498 194.072 359.736 194.582 405.646C194.81 426.202 187.834 440.225 171.441 453.167C138.272 479.354 109.474 399.49 69.3976 413.974C10.168 435.38 209.845 535.814 148.722 551.464C110.396 561.277 89.5327 494.841 54.8605 513.455C11.4922 536.737 131.083 600.871 92.783 631.398C63.0934 655.063 79.9275 627.568 -5.07952 620.364Z" stroke="#ADADAD" stroke-opacity="0.5" stroke-width="0.344613"/>
<path fill-rule="evenodd" clip-rule="evenodd" d="M-2.24127 610.387C-79.0549 603.877 -143.907 541.482 -134.071 467.22C-128.356 424.066 -115.639 375.401 -70.8601 374.411C-33.412 373.582 -36.1954 430.079 0.650783 436.76C69.4015 449.226 4.58671 264.718 73.1815 277.983C95.8283 282.362 112.727 287.366 124.43 306.729C145.122 340.966 56.0241 357.116 71.2413 393.953C87.1633 432.495 177.715 374.879 178.176 416.364C178.382 434.939 172.078 447.61 157.265 459.305C127.293 482.967 101.271 410.801 65.0574 423.889C11.5366 443.232 191.968 533.986 136.736 548.127C102.104 556.994 83.2518 496.962 51.9215 513.782C12.7332 534.82 120.797 592.772 86.1888 620.357C59.3609 641.741 74.5724 616.897 -2.24127 610.387Z" stroke="#ADADAD" stroke-opacity="0.5" stroke-width="0.311398"/>
<path fill-rule="evenodd" clip-rule="evenodd" d="M0.598906 600.412C-68.0214 594.596 -125.956 538.857 -117.17 472.516C-112.064 433.965 -100.703 390.491 -60.7007 389.606C-27.247 388.866 -29.7335 439.337 3.18247 445.305C64.5999 456.442 6.69859 291.614 67.9767 303.464C88.2078 307.376 103.304 311.846 113.759 329.144C132.244 359.729 52.6494 374.156 66.2434 407.064C80.4671 441.495 161.36 390.024 161.772 427.084C161.956 443.678 156.324 454.998 143.092 465.445C116.317 486.584 93.0702 422.115 60.7191 433.807C12.9072 451.087 174.093 532.16 124.752 544.793C93.8141 552.714 76.9728 499.086 48.9844 514.111C13.9761 532.906 110.513 584.676 79.5966 609.319C55.6303 628.422 69.2192 606.227 0.598906 600.412Z" stroke="#ADADAD" stroke-opacity="0.5" stroke-width="0.278183"/>
<path fill-rule="evenodd" clip-rule="evenodd" d="M3.43617 590.435C-56.9908 585.314 -108.008 536.23 -100.271 477.81C-95.7744 443.862 -85.7701 405.579 -50.5442 404.8C-21.0849 404.148 -23.2745 448.593 5.71126 453.849C59.7954 463.655 8.80754 318.508 62.769 328.943C80.5845 332.388 93.8784 336.324 103.085 351.557C119.363 378.49 49.2718 391.195 61.2427 420.173C73.768 450.493 145.002 405.168 145.365 437.803C145.527 452.415 140.568 462.384 128.915 471.584C105.337 490.198 84.8663 433.428 56.378 443.723C14.2748 458.94 156.215 530.333 112.765 541.458C85.5214 548.433 70.691 501.208 46.0444 514.439C15.2162 530.989 100.227 576.578 73.0014 598.279C51.8967 615.101 63.8632 595.556 3.43617 590.435Z" stroke="#ADADAD" stroke-opacity="0.5" stroke-width="0.244967"/>
<path fill-rule="evenodd" clip-rule="evenodd" d="M6.27538 580.459C-45.9583 576.032 -90.0581 533.604 -83.3697 483.105C-79.4831 453.761 -70.8354 420.668 -40.3857 419.995C-14.9209 419.431 -16.8136 457.849 8.24199 462.393C54.9928 470.87 10.9184 345.403 57.5632 354.423C72.9631 357.401 84.4545 360.804 92.4124 373.971C106.483 397.252 45.8961 408.234 56.2439 433.283C67.0709 459.492 128.646 420.313 128.96 448.523C129.1 461.154 124.813 469.77 114.741 477.723C94.3595 493.814 76.6643 444.74 52.0388 453.64C15.6444 466.794 138.339 528.506 100.78 538.123C77.2306 544.152 64.4111 503.33 43.1063 514.768C16.4581 529.074 89.9421 568.481 66.4082 587.239C48.1651 601.78 58.509 584.886 6.27538 580.459Z" stroke="#ADADAD" stroke-opacity="0.5" stroke-width="0.211752"/>
<path fill-rule="evenodd" clip-rule="evenodd" d="M9.11459 570.483C-34.9257 566.75 -72.1081 530.977 -66.4688 488.4C-63.1919 463.658 -55.9006 435.756 -30.2273 435.188C-8.75684 434.713 -10.3526 467.105 10.7727 470.936C50.1902 478.083 13.0293 372.297 52.3575 379.902C65.3417 382.413 75.0306 385.282 81.7403 396.384C93.604 416.013 42.5204 425.273 51.2451 446.392C60.3738 468.49 112.291 435.457 112.555 459.242C112.673 469.891 109.059 477.156 100.566 483.861C83.3819 497.428 68.4624 456.053 47.6996 463.556C17.014 474.646 120.462 526.679 88.7957 534.787C68.9398 539.871 58.1311 505.452 40.1683 515.095C17.7001 527.157 79.6574 560.383 59.8151 576.199C44.4335 588.459 53.1549 574.215 9.11459 570.483Z" stroke="#ADADAD" stroke-opacity="0.5" stroke-width="0.178537"/>
<path fill-rule="evenodd" clip-rule="evenodd" d="M11.9538 560.509C-23.8932 557.471 -54.158 528.353 -49.568 493.697C-46.9007 473.558 -40.9659 450.847 -20.0688 450.385C-2.5928 449.998 -3.8917 476.364 13.3035 479.482C45.3877 485.3 15.1403 399.194 47.1517 405.385C57.7204 407.428 65.6067 409.763 71.0681 418.8C80.7246 434.777 39.1448 442.314 46.2462 459.505C53.6766 477.491 95.9348 450.603 96.1499 469.963C96.2463 478.632 93.3042 484.545 86.3914 490.003C72.4043 501.046 60.2604 467.368 43.3604 473.475C18.3836 482.502 102.586 524.855 76.8109 531.454C60.649 535.592 51.8512 507.577 37.2302 515.426C18.942 525.244 69.3727 552.289 53.2219 565.162C40.702 575.141 47.8008 563.547 11.9538 560.509Z" stroke="#ADADAD" stroke-opacity="0.5" stroke-width="0.145321"/>
</svg>
