<svg width="480" height="948" viewBox="0 0 480 948" fill="none" xmlns="http://www.w3.org/2000/svg">
<path d="M-227.883 679.488C-160.465 818.852 22.3864 852.851 162.375 776.793C302.363 700.734 304.341 760.906 326.348 693.506C354.736 606.56 102.345 629.338 146.08 548.487C181.045 483.849 281.81 566.047 331.512 511.383C410.778 424.205 -3.80665 472.605 66.5947 378.393C114.23 314.646 241.162 409.641 266.005 334.734C278.283 297.713 274.765 268.676 253.299 236.848C205.358 165.764 114.532 368.125 43.247 319.69C-24.8829 273.4 110.558 144.267 35.9317 108.685C-6.27459 88.5611 -41.1303 99.1297 -85.1984 117.307C-218.677 172.366 102.888 417.191 -29.952 473.805C-101.146 504.147 -160.548 403.463 -224.246 447.451C-300.414 500.05 -267.06 598.504 -227.883 679.488Z" stroke="#FC7D47" stroke-opacity="0.4" stroke-width="0.643551"/>
<path fill-rule="evenodd" clip-rule="evenodd" d="M159.262 766.899C26.4988 839.032 -146.915 806.789 -210.854 674.617C-248.009 597.813 -279.641 504.44 -207.405 454.556C-146.994 412.838 -90.6577 508.326 -23.1383 479.55C102.845 425.858 -202.122 193.669 -75.5334 141.452C-33.7397 124.213 -0.682993 114.189 39.3449 133.275C110.12 167.02 -18.3309 289.488 46.2827 333.39C113.889 379.324 200.026 187.408 245.494 254.823C265.851 285.008 269.188 312.547 257.544 347.656C233.982 418.697 113.602 328.605 68.4253 389.062C1.65758 478.412 394.845 432.51 319.669 515.189C272.532 567.031 176.968 489.075 143.808 550.377C102.33 627.055 341.695 605.453 314.772 687.912C293.901 751.833 292.025 694.767 159.262 766.899Z" stroke="#FC7D47" stroke-opacity="0.4" stroke-width="0.610335"/>
<path fill-rule="evenodd" clip-rule="evenodd" d="M156.146 757.008C30.6079 825.216 -133.369 794.727 -193.828 669.748C-228.96 597.123 -258.872 508.832 -190.566 461.663C-133.443 422.215 -80.1727 512.506 -16.3279 485.297C102.799 434.527 -185.571 214.973 -65.8715 165.598C-26.3523 149.297 4.90535 139.82 42.7549 157.866C109.678 189.775 -11.7821 305.578 49.3151 347.091C113.242 390.525 194.692 209.053 237.685 272.8C256.934 301.342 260.09 327.382 249.079 360.581C226.8 427.756 112.971 342.567 70.2527 399.733C7.11858 484.22 378.908 440.816 307.824 518.996C263.252 568.017 172.889 494.303 141.533 552.27C102.313 624.774 328.651 604.348 303.193 682.319C283.458 742.762 281.684 688.801 156.146 757.008Z" stroke="#FC7D47" stroke-opacity="0.4" stroke-width="0.57712"/>
<path fill-rule="evenodd" clip-rule="evenodd" d="M153.031 747.113C34.7183 811.395 -119.821 782.661 -176.8 664.875C-209.911 596.43 -238.101 513.22 -173.727 468.766C-119.891 431.589 -69.6865 516.683 -9.51619 491.04C102.755 443.191 -169.019 236.274 -56.2085 189.741C-18.9637 174.378 10.495 165.446 46.1661 182.454C109.238 212.526 -5.23206 321.665 52.3488 360.788C112.596 401.723 189.359 230.695 229.877 290.773C248.019 317.672 250.993 342.213 240.616 373.502C219.619 436.81 112.341 356.524 72.0814 410.401C12.5808 490.025 362.973 449.119 295.979 522.799C253.973 568.999 168.81 499.528 139.259 554.158C102.296 622.49 315.608 603.239 291.615 676.723C273.016 733.687 271.344 682.832 153.031 747.113Z" stroke="#FC7D47" stroke-opacity="0.4" stroke-width="0.543905"/>
<path fill-rule="evenodd" clip-rule="evenodd" d="M149.915 737.218C38.8272 797.574 -106.275 770.595 -159.774 660.002C-190.863 595.737 -217.331 517.609 -156.888 475.869C-106.34 440.962 -59.2018 520.86 -2.70594 496.782C102.709 451.856 -152.468 257.575 -46.5468 213.884C-11.5765 199.459 16.0832 191.072 49.576 207.042C108.796 235.278 1.31657 337.751 55.3811 374.485C111.949 412.92 184.024 252.337 222.068 308.746C239.102 334.002 241.894 357.045 232.151 386.422C212.436 445.865 111.71 370.482 73.9086 421.068C18.0417 495.83 347.036 457.422 284.134 526.603C244.692 569.981 164.73 504.752 136.984 556.046C102.278 620.205 302.563 602.13 280.035 671.126C262.572 724.611 261.003 676.862 149.915 737.218Z" stroke="#FC7D47" stroke-opacity="0.4" stroke-width="0.510689"/>
<path fill-rule="evenodd" clip-rule="evenodd" d="M146.803 727.327C42.94 783.757 -92.7243 758.533 -142.744 655.133C-171.811 595.048 -196.558 522.001 -140.046 482.976C-92.7858 450.34 -48.7132 525.041 4.10818 502.529C102.667 460.525 -135.914 278.88 -36.8812 238.03C-4.18544 224.544 21.6753 216.702 52.9897 231.633C108.358 258.033 7.86907 353.841 58.4172 388.186C111.306 424.121 178.693 273.982 214.263 326.722C230.189 350.336 232.799 371.88 223.69 399.347C205.257 454.923 111.082 384.443 75.7397 431.739C23.5064 501.639 331.102 465.729 272.292 530.41C235.416 570.967 160.654 509.981 134.712 557.939C102.264 617.925 289.523 601.025 268.46 665.534C252.133 715.54 250.665 670.896 146.803 727.327Z" stroke="#FC7D47" stroke-opacity="0.4" stroke-width="0.477474"/>
<path fill-rule="evenodd" clip-rule="evenodd" d="M143.686 717.436C47.0484 769.941 -79.1785 746.471 -125.719 650.264C-152.764 594.359 -175.789 526.393 -123.208 490.083C-79.2357 459.717 -38.229 529.222 10.9179 508.276C102.62 469.194 -119.363 300.185 -27.2201 262.177C3.20122 249.628 27.2629 242.333 56.399 256.225C107.916 280.788 14.4172 369.931 61.449 401.887C110.659 435.322 173.358 295.628 206.453 344.699C221.271 366.67 223.7 386.715 215.224 412.272C198.074 463.982 110.451 398.405 77.5664 442.411C28.9667 507.448 315.165 474.036 260.445 534.217C226.135 571.953 156.574 515.209 132.437 559.831C102.246 615.644 276.478 599.92 256.88 659.941C241.689 706.469 240.323 664.931 143.686 717.436Z" stroke="#FC7D47" stroke-opacity="0.4" stroke-width="0.444259"/>
<path fill-rule="evenodd" clip-rule="evenodd" d="M140.569 707.543C51.1563 756.122 -65.6331 734.407 -108.694 645.393C-133.717 593.668 -155.02 530.784 -106.371 497.188C-65.6861 469.092 -27.7452 533.4 17.7272 514.021C102.573 477.861 -102.814 321.488 -17.5594 286.321C10.5874 274.711 32.8502 267.961 59.8078 280.814C107.473 303.541 20.9648 386.02 64.4802 415.586C110.011 446.522 168.022 317.271 198.643 362.674C212.353 383.003 214.601 401.549 206.758 425.194C190.891 473.038 109.818 412.364 79.3927 453.08C34.4265 513.254 299.227 482.341 248.598 538.023C216.853 572.937 152.493 520.436 130.161 561.721C102.227 613.361 263.432 598.813 245.3 654.347C231.244 697.396 229.981 658.963 140.569 707.543Z" stroke="#FC7D47" stroke-opacity="0.4" stroke-width="0.411044"/>
<path fill-rule="evenodd" clip-rule="evenodd" d="M137.454 697.65C55.2672 742.303 -52.0848 722.343 -91.6661 640.522C-114.667 592.976 -134.249 535.174 -89.5309 504.293C-52.1335 478.468 -17.2585 537.579 24.5393 519.766C102.529 486.528 -86.2609 342.791 -7.89585 310.466C17.9765 299.794 38.4403 293.589 63.2196 305.404C107.033 326.294 27.5154 402.108 67.5144 429.285C109.366 457.721 162.69 338.915 190.836 380.649C203.439 399.335 205.504 416.382 198.296 438.117C183.71 482.095 109.189 426.323 81.2218 463.749C39.8892 519.061 283.292 490.645 236.755 541.828C207.574 573.921 148.415 525.662 127.887 563.611C102.211 611.079 250.39 597.706 233.723 648.752C220.803 688.323 219.641 652.996 137.454 697.65Z" stroke="#FC7D47" stroke-opacity="0.4" stroke-width="0.377828"/>
<path fill-rule="evenodd" clip-rule="evenodd" d="M134.341 687.758C59.3795 728.487 -38.5351 710.281 -74.6367 635.653C-95.6153 592.287 -113.476 539.566 -72.6892 511.4C-38.5795 487.845 -6.77041 541.76 31.353 525.512C102.487 495.196 -69.7066 364.096 1.76921 334.613C25.3671 324.879 44.0319 319.219 66.6328 329.995C106.595 349.049 34.0674 418.198 70.5501 442.986C108.722 468.922 157.358 360.56 183.03 398.625C194.525 415.669 196.409 431.218 189.834 451.042C176.531 491.153 108.561 440.285 83.0525 474.42C45.3535 524.87 267.358 498.952 224.912 545.635C198.297 574.907 144.339 530.891 125.616 565.504C102.196 608.798 237.349 596.601 222.147 643.16C210.363 679.251 209.303 647.03 134.341 687.758Z" stroke="#FC7D47" stroke-opacity="0.4" stroke-width="0.344613"/>
<path fill-rule="evenodd" clip-rule="evenodd" d="M131.225 677.863C63.4882 714.666 -24.989 698.215 -57.611 630.78C-76.5676 591.594 -92.7069 543.954 -55.8512 518.503C-25.0291 497.218 3.71407 545.937 38.163 531.255C102.441 503.861 -53.1561 385.396 11.4306 358.755C32.7541 349.959 49.6198 344.846 70.0424 354.583C106.152 371.8 40.6157 434.284 73.5821 456.683C108.075 480.119 152.023 382.202 175.221 416.598C185.608 431.999 187.31 446.049 181.369 463.962C169.348 500.208 107.929 454.242 84.8794 485.088C50.814 530.675 251.421 507.255 213.066 549.439C189.016 575.889 140.259 536.115 123.34 567.392C102.178 606.514 224.304 595.492 210.567 637.563C199.919 670.176 198.962 641.061 131.225 677.863Z" stroke="#FC7D47" stroke-opacity="0.4" stroke-width="0.311398"/>
<path fill-rule="evenodd" clip-rule="evenodd" d="M128.112 667.97C67.6005 700.847 -11.4393 686.151 -40.5816 625.909C-57.5162 590.903 -71.934 548.345 -39.0096 525.608C-11.4751 506.594 14.2022 550.116 44.9766 537C102.398 512.528 -36.6019 406.699 21.0956 382.9C40.1446 375.042 55.2114 370.474 73.4555 379.173C105.714 394.553 47.1677 450.373 76.6177 470.382C107.432 491.319 146.692 403.846 167.415 434.573C176.694 448.331 178.215 460.882 172.908 476.885C162.169 509.264 107.301 468.202 86.71 495.757C56.2782 536.481 235.488 515.56 201.224 553.244C179.739 576.873 136.182 541.342 121.068 569.282C102.163 604.231 211.263 594.385 198.991 631.969C189.479 661.103 188.624 635.093 128.112 667.97Z" stroke="#FC7D47" stroke-opacity="0.4" stroke-width="0.278183"/>
<path fill-rule="evenodd" clip-rule="evenodd" d="M124.996 658.077C71.7092 687.029 2.10682 674.087 -23.5559 621.038C-38.4685 590.212 -51.1648 552.735 -22.1716 532.713C2.07528 515.969 24.6867 554.295 51.7866 542.745C102.352 521.195 -20.0514 428.002 30.757 407.044C47.5315 400.125 60.7993 396.102 76.8651 403.762C105.272 417.306 53.7161 466.461 79.6497 484.081C106.784 502.518 141.357 425.489 159.606 452.548C167.777 464.663 169.116 475.716 164.442 489.808C154.986 518.321 106.67 482.161 88.537 506.426C61.7388 542.288 219.55 523.865 189.378 557.049C170.458 577.857 132.102 546.568 118.793 571.173C102.145 601.948 198.218 593.278 187.412 626.374C179.035 652.03 178.282 629.125 124.996 658.077Z" stroke="#FC7D47" stroke-opacity="0.4" stroke-width="0.244967"/>
<path fill-rule="evenodd" clip-rule="evenodd" d="M121.881 648.184C75.82 673.21 15.6551 662.023 -6.52799 616.167C-19.4186 589.52 -30.3934 557.125 -5.33135 539.818C15.6278 525.345 35.1733 558.473 58.5987 548.49C102.308 529.862 -3.49866 449.305 40.4206 431.189C54.9207 425.208 66.3895 421.73 80.2769 428.352C104.832 440.06 60.2666 482.549 82.6839 497.78C106.139 513.717 136.024 447.133 151.799 470.522C158.862 480.995 160.02 490.549 155.98 502.73C147.805 527.377 106.04 496.121 90.3661 517.096C67.2015 548.095 203.615 532.169 177.534 560.855C161.18 578.841 128.024 551.795 116.52 573.063C102.129 599.666 185.175 592.171 175.834 620.78C168.593 642.957 167.943 623.158 121.881 648.184Z" stroke="#FC7D47" stroke-opacity="0.4" stroke-width="0.211752"/>
<path fill-rule="evenodd" clip-rule="evenodd" d="M118.767 638.289C79.9304 659.389 29.2029 649.957 10.4994 611.294C-0.369166 588.827 -9.62245 561.514 11.5084 546.921C29.1799 534.718 45.6595 562.65 65.4104 554.233C102.263 538.527 13.0536 470.606 50.0837 455.332C62.3093 450.289 71.9791 447.357 83.6881 452.939C104.391 462.811 66.8167 498.635 85.7176 511.478C105.494 524.914 130.691 468.775 143.991 488.495C149.946 497.325 150.922 505.381 147.516 515.651C140.624 536.432 105.41 510.078 92.1948 527.763C72.6638 553.9 187.68 540.472 165.689 564.658C151.901 579.823 123.946 557.019 114.246 574.951C102.113 597.381 172.132 591.062 164.257 615.183C158.151 633.882 157.603 617.188 118.767 638.289Z" stroke="#FC7D47" stroke-opacity="0.4" stroke-width="0.178537"/>
<path fill-rule="evenodd" clip-rule="evenodd" d="M115.653 628.398C84.0422 645.573 42.7522 637.895 27.5283 606.425C18.6817 588.138 11.1499 565.906 28.3495 554.028C42.7334 544.095 56.1472 566.831 72.2236 559.98C102.22 547.195 29.6073 491.911 59.7483 479.478C69.6994 475.373 77.5702 472.987 87.1009 477.531C103.953 485.566 73.3682 514.726 88.7528 525.179C104.85 536.116 125.359 490.42 136.185 506.472C141.032 513.659 141.827 520.216 139.054 528.576C133.444 545.49 104.782 524.039 94.025 538.434C78.1275 559.709 171.746 548.779 153.846 568.465C142.623 580.809 119.869 562.247 111.974 576.844C102.098 595.101 159.091 589.957 152.68 609.591C147.711 624.81 147.264 611.223 115.653 628.398Z" stroke="#FC7D47" stroke-opacity="0.4" stroke-width="0.145321"/>
</svg>
