<svg width="555" height="749" viewBox="0 0 555 749" fill="none" xmlns="http://www.w3.org/2000/svg">
<path d="M209.117 679.488C276.535 818.852 459.386 852.851 599.375 776.793C739.363 700.734 741.341 760.906 763.348 693.506C791.736 606.56 539.345 629.338 583.079 548.487C618.045 483.849 718.81 566.047 768.512 511.383C847.778 424.205 433.193 472.605 503.595 378.393C551.23 314.646 678.162 409.641 703.005 334.734C715.283 297.713 711.765 268.676 690.299 236.848C642.358 165.764 551.532 368.125 480.247 319.69C412.117 273.4 547.558 144.267 472.932 108.685C430.725 88.5611 395.87 99.1297 351.802 117.307C218.323 172.366 539.888 417.191 407.048 473.805C335.854 504.147 276.452 403.463 212.754 447.451C136.586 500.05 169.94 598.504 209.117 679.488Z" stroke="#3BA3A4" stroke-opacity="0.5" stroke-width="0.643551"/>
<path fill-rule="evenodd" clip-rule="evenodd" d="M596.262 766.899C463.499 839.032 290.085 806.789 226.146 674.617C188.991 597.813 157.359 504.44 229.595 454.556C290.006 412.838 346.342 508.326 413.862 479.55C539.845 425.858 234.877 193.669 361.466 141.452C403.26 124.213 436.317 114.189 476.345 133.275C547.12 167.02 418.669 289.488 483.283 333.39C550.889 379.324 637.026 187.408 682.493 254.823C702.851 285.008 706.188 312.547 694.543 347.656C670.982 418.697 550.602 328.605 505.425 389.062C438.657 478.412 831.845 432.51 756.669 515.189C709.532 567.031 613.968 489.075 580.808 550.377C539.33 627.055 778.695 605.453 751.772 687.912C730.901 751.833 729.025 694.767 596.262 766.899Z" stroke="#3BA3A4" stroke-opacity="0.5" stroke-width="0.610335"/>
<path fill-rule="evenodd" clip-rule="evenodd" d="M593.146 757.008C467.608 825.216 303.631 794.727 243.172 669.748C208.04 597.123 178.128 508.832 246.434 461.663C303.557 422.215 356.827 512.506 420.672 485.297C539.799 434.527 251.429 214.973 371.128 165.598C410.648 149.297 441.905 139.82 479.755 157.866C546.678 189.775 425.218 305.578 486.315 347.091C550.242 390.525 631.692 209.053 674.685 272.8C693.934 301.342 697.09 327.382 686.079 360.581C663.8 427.756 549.971 342.567 507.253 399.733C444.119 484.22 815.908 440.816 744.824 518.996C700.252 568.017 609.889 494.303 578.533 552.27C539.312 624.774 765.651 604.348 740.193 682.319C720.458 742.762 718.684 688.801 593.146 757.008Z" stroke="#3BA3A4" stroke-opacity="0.5" stroke-width="0.57712"/>
<path fill-rule="evenodd" clip-rule="evenodd" d="M590.031 747.113C471.718 811.395 317.179 782.661 260.2 664.875C227.089 596.43 198.899 513.22 263.273 468.766C317.109 431.589 367.313 516.683 427.484 491.04C539.755 443.191 267.981 236.274 380.792 189.741C418.036 174.378 447.495 165.446 483.166 182.454C546.238 212.526 431.768 321.665 489.349 360.788C549.596 401.723 626.359 230.695 666.877 290.773C685.019 317.672 687.993 342.213 677.616 373.502C656.619 436.81 549.341 356.524 509.081 410.401C449.581 490.025 799.973 449.119 732.979 522.799C690.973 568.999 605.81 499.528 576.259 554.158C539.296 622.49 752.608 603.239 728.615 676.723C710.016 733.687 708.344 682.832 590.031 747.113Z" stroke="#3BA3A4" stroke-opacity="0.5" stroke-width="0.543905"/>
<path fill-rule="evenodd" clip-rule="evenodd" d="M586.915 737.218C475.827 797.574 330.725 770.595 277.226 660.002C246.137 595.737 219.669 517.609 280.112 475.869C330.66 440.962 377.798 520.86 434.294 496.782C539.709 451.856 284.532 257.575 390.453 213.884C425.424 199.459 453.083 191.072 486.576 207.042C545.796 235.278 438.317 337.751 492.381 374.485C548.95 412.92 621.024 252.337 659.068 308.746C676.102 334.002 678.894 357.045 669.151 386.422C649.436 445.865 548.71 370.482 510.909 421.068C455.042 495.83 784.036 457.422 721.134 526.603C681.692 569.981 601.73 504.752 573.984 556.046C539.278 620.205 739.563 602.13 717.035 671.126C699.572 724.611 698.003 676.862 586.915 737.218Z" stroke="#3BA3A4" stroke-opacity="0.5" stroke-width="0.510689"/>
<path fill-rule="evenodd" clip-rule="evenodd" d="M583.803 727.327C479.94 783.757 344.276 758.533 294.256 655.133C265.189 595.048 240.442 522.001 296.954 482.976C344.214 450.34 388.287 525.041 441.108 502.529C539.667 460.525 301.086 278.88 400.119 238.03C432.815 224.544 458.675 216.702 489.99 231.633C545.358 258.033 444.869 353.841 495.417 388.186C548.306 424.121 615.693 273.982 651.263 326.722C667.189 350.336 669.799 371.88 660.69 399.347C642.257 454.923 548.082 384.443 512.74 431.739C460.506 501.639 768.102 465.729 709.292 530.41C672.416 570.967 597.654 509.981 571.712 557.939C539.264 617.925 726.523 601.025 705.46 665.534C689.133 715.54 687.665 670.896 583.803 727.327Z" stroke="#3BA3A4" stroke-opacity="0.5" stroke-width="0.477474"/>
<path fill-rule="evenodd" clip-rule="evenodd" d="M580.686 717.436C484.048 769.941 357.822 746.471 311.281 650.264C284.236 594.359 261.211 526.393 313.792 490.083C357.764 459.717 398.771 529.222 447.918 508.276C539.62 469.194 317.637 300.185 409.78 262.177C440.201 249.628 464.263 242.333 493.399 256.225C544.916 280.788 451.417 369.931 498.449 401.887C547.659 435.322 610.358 295.628 643.453 344.699C658.271 366.67 660.7 386.715 652.224 412.272C635.074 463.982 547.451 398.405 514.566 442.411C465.967 507.448 752.165 474.036 697.445 534.217C663.135 571.953 593.574 515.209 569.437 559.831C539.246 615.644 713.478 599.92 693.88 659.941C678.689 706.469 677.323 664.931 580.686 717.436Z" stroke="#3BA3A4" stroke-opacity="0.5" stroke-width="0.444259"/>
<path fill-rule="evenodd" clip-rule="evenodd" d="M577.569 707.543C488.156 756.122 371.367 734.407 328.306 645.393C303.283 593.668 281.98 530.784 330.629 497.188C371.314 469.092 409.255 533.4 454.727 514.021C539.574 477.861 334.186 321.488 419.441 286.321C447.587 274.711 469.85 267.961 496.808 280.814C544.473 303.541 457.965 386.02 501.48 415.586C547.011 446.522 605.022 317.271 635.643 362.674C649.354 383.003 651.601 401.549 643.759 425.194C627.891 473.038 546.818 412.364 516.393 453.08C471.427 513.254 736.227 482.341 685.599 538.023C653.853 572.937 589.493 520.436 567.161 561.721C539.227 613.361 700.432 598.813 682.3 654.347C668.244 697.396 666.981 658.963 577.569 707.543Z" stroke="#3BA3A4" stroke-opacity="0.5" stroke-width="0.411044"/>
<path fill-rule="evenodd" clip-rule="evenodd" d="M574.454 697.65C492.267 742.303 384.915 722.343 345.334 640.522C322.333 592.976 302.751 535.174 347.469 504.293C384.867 478.468 419.741 537.579 461.539 519.766C539.529 486.528 350.739 342.791 429.104 310.466C454.977 299.794 475.44 293.589 500.22 305.404C544.033 326.294 464.515 402.108 504.514 429.285C546.366 457.721 599.69 338.915 627.836 380.649C640.439 399.335 642.504 416.382 635.296 438.117C620.71 482.095 546.189 426.323 518.222 463.749C476.889 519.061 720.292 490.645 673.755 541.828C644.574 573.921 585.415 525.662 564.887 563.611C539.211 611.079 687.39 597.706 670.723 648.752C657.803 688.323 656.641 652.996 574.454 697.65Z" stroke="#3BA3A4" stroke-opacity="0.5" stroke-width="0.377828"/>
<path fill-rule="evenodd" clip-rule="evenodd" d="M571.341 687.758C496.379 728.487 398.465 710.281 362.363 635.653C341.385 592.287 323.524 539.566 364.311 511.4C398.42 487.845 430.23 541.76 468.353 525.512C539.487 495.196 367.293 364.096 438.769 334.613C462.367 324.879 481.032 319.219 503.633 329.995C543.594 349.049 471.067 418.198 507.55 442.986C545.722 468.922 594.358 360.56 620.03 398.625C631.525 415.669 633.409 431.218 626.834 451.042C613.531 491.153 545.561 440.285 520.052 474.42C482.353 524.87 704.358 498.952 661.912 545.635C635.297 574.907 581.339 530.891 562.615 565.504C539.196 608.798 674.348 596.601 659.147 643.16C647.362 679.251 646.303 647.03 571.341 687.758Z" stroke="#3BA3A4" stroke-opacity="0.5" stroke-width="0.344613"/>
<path fill-rule="evenodd" clip-rule="evenodd" d="M568.225 677.863C500.488 714.666 412.011 698.215 379.389 630.78C360.432 591.594 344.293 543.954 381.149 518.503C411.971 497.218 440.714 545.937 475.163 531.255C539.441 503.861 383.844 385.396 448.431 358.755C469.754 349.959 486.62 344.846 507.042 354.583C543.152 371.8 477.616 434.284 510.582 456.683C545.075 480.119 589.023 382.202 612.221 416.598C622.608 431.999 624.31 446.049 618.369 463.962C606.348 500.208 544.929 454.242 521.879 485.088C487.814 530.675 688.421 507.255 650.066 549.439C626.016 575.889 577.259 536.115 560.34 567.392C539.178 606.514 661.304 595.492 647.567 637.563C636.919 670.176 635.962 641.061 568.225 677.863Z" stroke="#3BA3A4" stroke-opacity="0.5" stroke-width="0.311398"/>
<path fill-rule="evenodd" clip-rule="evenodd" d="M565.112 667.97C504.6 700.847 425.561 686.151 396.418 625.909C379.484 590.903 365.066 548.345 397.99 525.608C425.525 506.594 451.202 550.116 481.976 537C539.398 512.528 400.398 406.699 458.096 382.9C477.145 375.042 492.211 370.474 510.455 379.173C542.714 394.553 484.168 450.373 513.618 470.382C544.432 491.319 583.692 403.846 604.415 434.573C613.694 448.331 615.215 460.882 609.907 476.885C599.169 509.264 544.301 468.202 523.71 495.757C493.278 536.481 672.487 515.56 638.224 553.244C616.739 576.873 573.182 541.342 558.068 569.282C539.163 604.231 648.263 594.385 635.991 631.969C626.479 661.103 625.624 635.093 565.112 667.97Z" stroke="#3BA3A4" stroke-opacity="0.5" stroke-width="0.278183"/>
<path fill-rule="evenodd" clip-rule="evenodd" d="M561.996 658.077C508.709 687.029 439.107 674.087 413.444 621.038C398.531 590.212 385.835 552.735 414.828 532.713C439.075 515.969 461.687 554.295 488.787 542.745C539.352 521.195 416.949 428.002 467.757 407.044C484.532 400.125 497.799 396.102 513.865 403.762C542.272 417.306 490.716 466.461 516.65 484.081C543.784 502.518 578.357 425.489 596.606 452.548C604.777 464.663 606.116 475.716 601.442 489.808C591.986 518.321 543.669 482.161 525.537 506.426C498.739 542.288 656.55 523.865 626.378 557.049C607.458 577.857 569.102 546.568 555.793 571.173C539.145 601.948 635.218 593.278 624.412 626.374C616.035 652.03 615.282 629.125 561.996 658.077Z" stroke="#3BA3A4" stroke-opacity="0.5" stroke-width="0.244967"/>
<path fill-rule="evenodd" clip-rule="evenodd" d="M558.881 648.184C512.82 673.21 452.655 662.023 430.472 616.167C417.581 589.52 406.607 557.125 431.669 539.818C452.628 525.345 472.173 558.473 495.599 548.49C539.308 529.862 433.501 449.305 477.421 431.189C491.921 425.208 503.389 421.73 517.277 428.352C541.832 440.06 497.267 482.549 519.684 497.78C543.139 513.717 573.024 447.133 588.799 470.522C595.862 480.995 597.02 490.549 592.98 502.73C584.805 527.377 543.04 496.121 527.366 517.096C504.201 548.095 640.615 532.169 614.534 560.855C598.18 578.841 565.024 551.795 553.52 573.063C539.129 599.666 622.175 592.171 612.834 620.78C605.593 642.957 604.943 623.158 558.881 648.184Z" stroke="#3BA3A4" stroke-opacity="0.5" stroke-width="0.211752"/>
<path fill-rule="evenodd" clip-rule="evenodd" d="M555.767 638.289C516.93 659.389 466.203 649.957 447.499 611.294C436.631 588.827 427.378 561.514 448.508 546.921C466.18 534.718 482.659 562.65 502.41 554.233C539.263 538.527 450.054 470.606 487.084 455.332C499.309 450.289 508.979 447.357 520.688 452.939C541.391 462.811 503.817 498.635 522.718 511.478C542.494 524.914 567.691 468.775 580.991 488.495C586.946 497.325 587.922 505.381 584.516 515.651C577.624 536.432 542.41 510.078 529.195 527.763C509.664 553.9 624.68 540.472 602.689 564.658C588.901 579.823 560.946 557.019 551.246 574.951C539.113 597.381 609.132 591.062 601.257 615.183C595.151 633.882 594.603 617.188 555.767 638.289Z" stroke="#3BA3A4" stroke-opacity="0.5" stroke-width="0.178537"/>
<path fill-rule="evenodd" clip-rule="evenodd" d="M552.653 628.398C521.042 645.573 479.752 637.895 464.528 606.425C455.682 588.138 448.15 565.906 465.35 554.028C479.734 544.095 493.147 566.831 509.224 559.98C539.22 547.195 466.607 491.911 496.748 479.478C506.699 475.373 514.57 472.987 524.101 477.531C540.953 485.566 510.368 514.726 525.753 525.179C541.85 536.116 562.359 490.42 573.185 506.472C578.032 513.659 578.827 520.216 576.054 528.576C570.444 545.49 541.782 524.039 531.025 538.434C515.128 559.709 608.746 548.779 590.846 568.465C579.623 580.809 556.869 562.247 548.974 576.844C539.098 595.101 596.091 589.957 589.68 609.591C584.711 624.81 584.264 611.223 552.653 628.398Z" stroke="#3BA3A4" stroke-opacity="0.5" stroke-width="0.145321"/>
</svg>
