<svg width="567" height="740" viewBox="0 0 567 740" fill="none" xmlns="http://www.w3.org/2000/svg">
<g filter="url(#filter0_f_2197_28340)">
<path d="M709.574 645.765C654.996 790.64 475.955 840.988 329.679 777.862C183.403 714.736 186.859 774.841 158.864 709.7C122.751 625.668 376.169 625.595 325.322 549.017C284.671 487.795 191.728 578.744 137.299 528.785C50.4946 449.109 467.755 459.929 389.145 372.449C335.956 313.257 218.107 419.31 186.611 346.948C171.044 311.186 171.93 281.95 190.438 248.316C231.775 173.198 340.477 366.545 407.105 311.88C470.783 259.635 324.25 143.241 395.364 101.075C435.584 77.2271 471.25 84.6097 516.778 98.7397C654.677 141.538 356.499 414.361 493.902 458.767C567.542 482.565 617.623 376.935 685.029 415C765.629 460.517 741.288 561.578 709.574 645.765Z" stroke="#3BA3A4" stroke-opacity="0.5" stroke-width="0.643551"/>
<path fill-rule="evenodd" clip-rule="evenodd" d="M331.887 767.728C470.614 827.596 640.414 779.847 692.174 642.449C722.252 562.607 745.336 466.762 668.896 423.594C604.97 387.494 557.473 487.672 487.634 465.102C357.322 422.989 640.111 164.246 509.329 123.657C466.151 110.256 432.326 103.255 394.182 125.871C326.738 165.861 465.708 276.248 405.316 325.797C342.128 377.64 239.036 194.273 199.833 265.513C182.28 297.411 181.44 325.138 196.203 359.055C226.074 427.682 337.84 327.102 388.284 383.239C462.836 466.204 67.1119 455.943 149.436 531.507C201.056 578.887 289.202 492.632 327.755 550.694C375.977 623.32 135.639 623.389 169.888 703.084C196.438 764.863 193.16 707.86 331.887 767.728Z" stroke="#3BA3A4" stroke-opacity="0.5" stroke-width="0.610335"/>
<path fill-rule="evenodd" clip-rule="evenodd" d="M334.098 757.596C465.275 814.206 625.835 769.055 674.778 639.134C703.219 563.638 725.047 473.009 652.767 432.191C592.319 398.055 547.408 492.781 481.369 471.439C358.149 431.618 625.548 186.956 501.884 148.576C461.056 135.905 429.071 129.284 393.003 150.67C329.229 188.484 460.637 292.863 403.532 339.715C343.782 388.737 246.3 215.349 209.231 282.713C192.633 312.874 191.838 339.092 205.798 371.163C234.043 436.056 339.727 340.95 387.426 394.032C457.921 472.482 83.7326 462.779 161.577 534.23C210.387 579.032 293.736 497.471 330.191 552.374C375.789 621.047 148.531 621.112 180.916 696.47C206.021 754.887 202.921 700.986 334.098 757.596Z" stroke="#3BA3A4" stroke-opacity="0.5" stroke-width="0.57712"/>
<path fill-rule="evenodd" clip-rule="evenodd" d="M336.309 747.461C459.936 800.813 611.254 758.261 657.381 635.817C684.185 564.666 704.757 479.253 636.637 440.784C579.668 408.613 537.341 497.887 475.104 477.774C358.975 440.244 610.985 209.664 494.438 173.492C455.959 161.55 425.815 155.311 391.823 175.466C331.72 211.103 455.564 309.475 401.746 353.631C345.435 399.832 253.564 236.422 218.627 299.909C202.985 328.335 202.236 353.044 215.392 383.269C242.012 444.426 341.613 354.794 386.567 404.821C453.005 478.756 100.352 469.611 173.716 536.951C219.717 579.174 298.269 502.307 332.626 554.05C375.6 618.771 161.421 618.832 191.942 689.853C215.602 744.908 212.681 694.11 336.309 747.461Z" stroke="#3BA3A4" stroke-opacity="0.5" stroke-width="0.543905"/>
<path fill-rule="evenodd" clip-rule="evenodd" d="M338.52 737.326C454.597 787.42 596.675 747.466 639.985 632.5C665.152 565.694 684.468 485.497 620.507 449.377C567.018 419.171 527.276 502.993 468.839 484.108C359.802 448.87 596.422 232.371 486.992 198.409C450.864 187.196 422.56 181.337 390.644 200.262C334.211 233.723 450.493 326.087 399.961 367.546C347.089 410.926 260.828 257.495 228.025 317.105C213.338 343.795 212.635 366.995 224.988 395.375C249.982 452.797 343.501 368.639 385.709 415.61C448.09 485.03 116.973 476.444 185.857 539.671C229.049 579.316 302.803 507.143 335.062 555.726C375.412 616.495 174.312 616.552 202.97 683.236C225.185 734.929 222.442 687.233 338.52 737.326Z" stroke="#3BA3A4" stroke-opacity="0.5" stroke-width="0.510689"/>
<path fill-rule="evenodd" clip-rule="evenodd" d="M340.728 727.194C449.256 774.029 582.093 736.675 622.586 629.186C646.116 566.725 664.176 491.744 604.375 457.973C554.365 429.731 517.207 508.102 462.571 490.445C360.627 457.499 581.856 255.081 479.544 223.328C445.765 212.844 419.303 207.367 389.462 225.06C336.7 256.345 445.418 342.702 398.173 381.465C348.74 422.023 268.089 278.572 237.42 334.304C223.688 359.258 223.031 380.949 234.58 407.483C257.949 461.171 345.385 382.486 384.848 426.403C443.172 491.308 133.591 483.28 197.994 542.395C238.377 579.461 307.335 511.982 337.495 557.406C375.22 614.221 187.201 614.275 213.994 676.622C234.764 724.953 232.2 680.359 340.728 727.194Z" stroke="#3BA3A4" stroke-opacity="0.5" stroke-width="0.477474"/>
<path fill-rule="evenodd" clip-rule="evenodd" d="M342.94 717.061C443.918 760.638 567.514 725.882 605.19 625.871C627.084 567.754 643.887 497.99 588.246 466.568C541.715 440.291 507.142 513.21 456.307 496.782C361.454 466.128 567.294 277.791 472.099 248.246C440.67 238.492 416.048 233.395 388.284 249.858C339.192 278.966 440.347 359.316 396.389 395.382C350.394 433.119 275.354 299.647 246.818 351.502C234.042 374.72 233.43 394.903 244.176 419.591C265.919 469.544 347.273 396.333 383.991 437.194C438.257 497.584 150.212 490.115 210.135 545.117C247.709 579.605 311.869 516.82 339.932 559.084C375.033 611.947 200.092 611.998 225.022 670.007C244.348 714.976 241.962 673.484 342.94 717.061Z" stroke="#3BA3A4" stroke-opacity="0.5" stroke-width="0.444259"/>
<path fill-rule="evenodd" clip-rule="evenodd" d="M345.152 706.928C438.581 747.247 552.936 715.09 587.795 622.556C608.052 568.784 623.599 504.236 572.118 475.164C529.066 450.851 497.078 518.318 450.043 503.118C362.282 474.756 552.732 300.5 464.654 273.164C435.575 264.139 412.795 259.424 387.106 274.656C341.684 301.588 435.277 375.93 394.605 409.3C352.049 444.215 282.62 320.722 256.217 368.701C244.396 390.183 243.83 408.856 253.773 431.698C273.89 477.916 349.161 410.179 383.134 447.986C433.343 503.86 166.834 496.95 222.277 547.84C257.041 579.749 316.405 521.659 342.369 560.762C374.846 609.673 212.985 609.72 236.051 663.392C253.931 704.999 251.724 666.609 345.152 706.928Z" stroke="#3BA3A4" stroke-opacity="0.5" stroke-width="0.411044"/>
<path fill-rule="evenodd" clip-rule="evenodd" d="M347.361 696.794C433.24 733.855 538.355 704.296 570.397 619.24C589.017 569.813 603.307 510.481 555.987 483.758C516.413 461.41 487.011 523.425 443.777 509.453C363.107 483.383 538.168 323.208 457.207 298.082C430.478 289.786 409.538 285.451 385.925 299.452C344.174 324.208 430.204 392.543 392.818 423.216C353.701 455.31 289.882 341.796 265.613 385.898C254.747 405.644 254.227 422.809 263.366 443.805C281.858 486.288 351.046 424.025 382.274 458.776C428.426 510.136 183.452 503.783 234.415 550.561C266.37 579.892 320.937 526.496 344.803 562.439C374.655 607.398 225.874 607.441 247.076 656.776C263.512 695.021 261.483 659.733 347.361 696.794Z" stroke="#3BA3A4" stroke-opacity="0.5" stroke-width="0.377828"/>
<path fill-rule="evenodd" clip-rule="evenodd" d="M349.57 686.662C427.899 720.465 523.773 693.505 552.999 615.926C569.982 570.844 583.016 516.728 539.855 492.354C503.761 471.971 476.943 528.534 437.509 515.791C363.932 492.012 523.602 345.919 449.759 323.001C425.38 315.434 406.281 311.481 384.744 324.251C346.663 346.831 425.13 409.158 391.031 437.135C355.352 466.407 297.144 362.872 275.009 403.097C265.098 421.107 264.623 436.763 272.959 455.913C289.825 494.662 352.931 437.872 381.414 469.568C423.508 516.413 200.07 510.619 246.553 553.285C275.699 580.037 325.469 531.335 347.237 564.119C374.465 605.125 238.763 605.164 258.101 650.162C273.092 685.045 271.241 652.859 349.57 686.662Z" stroke="#3BA3A4" stroke-opacity="0.5" stroke-width="0.344613"/>
<path fill-rule="evenodd" clip-rule="evenodd" d="M351.781 676.527C422.56 707.072 509.194 682.71 535.602 612.608C550.948 571.872 562.726 522.972 523.726 500.947C491.11 482.529 466.877 533.64 431.244 522.125C364.758 500.638 509.039 368.626 442.313 347.917C420.284 341.08 403.026 337.508 383.564 349.047C349.154 369.45 420.058 425.77 389.245 451.05C357.006 477.501 304.408 383.946 284.406 420.293C275.45 436.568 275.022 450.714 282.554 468.019C297.794 503.033 354.818 451.716 380.555 480.358C418.592 522.687 216.691 517.452 258.693 556.005C285.03 580.179 330.003 536.171 349.673 565.795C374.276 602.849 251.654 602.884 269.128 643.545C282.674 675.065 281.002 645.982 351.781 676.527Z" stroke="#3BA3A4" stroke-opacity="0.5" stroke-width="0.311398"/>
<path fill-rule="evenodd" clip-rule="evenodd" d="M353.989 666.393C417.219 693.68 494.612 671.917 518.203 609.292C531.912 572.901 542.434 529.217 507.594 509.542C478.457 493.087 456.808 538.747 424.977 528.46C365.582 509.265 494.474 391.334 434.865 372.834C415.185 366.726 399.768 363.535 382.382 373.844C351.642 392.07 414.983 442.383 387.458 464.967C358.657 488.596 311.669 405.02 293.801 437.49C285.8 452.029 285.418 464.667 292.146 480.125C305.761 511.405 356.702 465.562 379.694 491.148C413.674 528.963 233.308 524.286 270.831 558.727C294.358 580.322 334.534 541.008 352.106 567.472C374.085 600.574 264.542 600.605 280.153 636.929C292.254 665.087 290.76 639.106 353.989 666.393Z" stroke="#3BA3A4" stroke-opacity="0.5" stroke-width="0.278183"/>
<path fill-rule="evenodd" clip-rule="evenodd" d="M356.202 656.26C411.882 680.289 480.033 661.124 500.808 605.977C512.88 573.931 522.146 535.463 491.465 518.137C465.807 503.647 446.744 543.855 418.713 534.797C366.41 517.894 479.912 414.044 427.421 397.752C410.091 392.374 396.514 389.564 381.204 398.641C354.135 414.692 409.913 458.997 385.674 478.884C360.312 499.692 318.934 426.095 303.2 454.689C296.154 467.491 295.817 478.62 301.743 492.233C313.732 519.777 358.591 479.408 378.837 501.94C408.76 535.239 249.93 531.12 282.972 561.449C303.69 580.466 339.069 545.846 354.543 569.15C373.898 598.3 277.435 598.327 291.181 630.314C301.837 655.11 300.522 632.231 356.202 656.26Z" stroke="#3BA3A4" stroke-opacity="0.5" stroke-width="0.244967"/>
<path fill-rule="evenodd" clip-rule="evenodd" d="M358.41 646.126C406.541 666.897 465.452 650.331 483.41 602.661C493.845 574.96 501.854 541.708 475.334 526.731C453.155 514.206 436.676 548.962 412.446 541.132C367.235 526.521 465.347 436.752 419.973 422.67C404.993 418.02 393.257 415.591 380.023 423.438C356.624 437.312 404.839 475.61 383.886 492.801C361.963 510.788 326.196 447.169 312.595 471.886C306.505 482.953 306.214 492.572 311.336 504.34C321.699 528.149 360.476 493.254 377.977 512.73C403.842 541.514 266.548 537.954 295.11 564.171C313.019 580.609 343.601 550.683 356.977 570.828C373.707 596.025 290.323 596.048 302.206 623.698C311.417 645.132 310.28 625.355 358.41 646.126Z" stroke="#3BA3A4" stroke-opacity="0.5" stroke-width="0.211752"/>
<path fill-rule="evenodd" clip-rule="evenodd" d="M360.621 635.991C401.201 653.504 450.872 639.536 466.013 599.344C474.811 575.988 481.564 547.952 459.203 535.324C440.503 524.764 426.61 554.069 406.18 547.466C368.061 535.147 450.783 459.459 412.527 447.586C399.896 443.666 390.001 441.618 378.843 448.234C359.114 459.932 399.766 492.222 382.1 506.716C363.616 521.882 333.46 468.243 321.992 489.082C316.857 498.413 316.611 506.524 320.93 516.445C329.668 536.52 362.362 507.098 377.118 523.52C398.926 547.789 283.168 544.787 307.25 566.891C322.35 580.751 348.134 555.519 359.412 572.504C373.518 593.748 303.214 593.769 313.233 617.081C320.999 635.153 320.04 618.478 360.621 635.991Z" stroke="#3BA3A4" stroke-opacity="0.5" stroke-width="0.178537"/>
<path fill-rule="evenodd" clip-rule="evenodd" d="M362.83 625.859C395.86 640.114 436.29 628.744 448.614 596.03C455.776 577.019 461.272 554.199 443.072 543.92C427.851 535.325 416.542 559.178 399.913 553.804C368.886 543.776 436.218 482.169 405.079 472.505C394.798 469.314 386.744 467.647 377.662 473.032C361.603 482.554 394.692 508.837 380.313 520.635C365.268 532.979 340.722 489.319 331.387 506.281C327.208 513.876 327.008 520.478 330.523 528.554C337.635 544.894 364.247 520.946 376.258 534.312C394.009 554.066 299.786 551.623 319.388 569.615C331.678 580.896 352.666 560.358 361.846 574.183C373.327 591.475 316.103 591.492 324.258 610.467C330.579 625.177 329.799 611.604 362.83 625.859Z" stroke="#3BA3A4" stroke-opacity="0.5" stroke-width="0.145321"/>
</g>
<defs>
<filter id="filter0_f_2197_28340" x="-2" y="-1.99978" width="889.529" height="931.126" filterUnits="userSpaceOnUse" color-interpolation-filters="sRGB">
<feFlood flood-opacity="0" result="BackgroundImageFix"/>
<feBlend mode="normal" in="SourceGraphic" in2="BackgroundImageFix" result="shape"/>
<feGaussianBlur stdDeviation="1" result="effect1_foregroundBlur_2197_28340"/>
</filter>
</defs>
</svg>
