<svg width="41" height="33" viewBox="0 0 41 33" fill="none" xmlns="http://www.w3.org/2000/svg">
<path fill-rule="evenodd" clip-rule="evenodd" d="M13.833 9.83325C13.833 7.62492 12.0413 5.83325 9.83301 5.83325C7.62467 5.83325 5.83301 7.62492 5.83301 9.83325C5.83301 12.0416 7.62467 13.8333 9.83301 13.8333C12.0413 13.8333 13.833 12.0416 13.833 9.83325ZM35.1663 17.8334L26.4997 9.16675L15.833 19.8334L12.4997 16.5001L5.83301 23.1667V27.1667H35.1663V17.8334ZM40.5 3.83333C40.5 2 39 0.5 37.1667 0.5H3.83333C2 0.5 0.5 2 0.5 3.83333V29.1667C0.5 31 2 32.5 3.83333 32.5H37.1667C39 32.5 40.5 31 40.5 29.1667V3.83333Z" fill="white"/>
<path d="M13.833 9.83325M13.833 9.83325M35.1663 17.8334H35.6663V17.6263L35.5199 17.4799L35.1663 17.8334ZM26.4997 9.16675L26.8532 8.81319L26.4997 8.45964L26.1461 8.81319L26.4997 9.16675ZM15.833 19.8334L15.4795 20.187L15.833 20.5405L16.1866 20.187L15.833 19.8334ZM12.4997 16.5001L12.8532 16.1465L12.4997 15.793L12.1461 16.1465L12.4997 16.5001ZM5.83301 23.1667L5.47945 22.8132L5.33301 22.9596V23.1667H5.83301ZM5.83301 27.1667H5.33301V27.6667H5.83301V27.1667ZM35.1663 27.1667V27.6667H35.6663V27.1667H35.1663ZM13.833 9.83325H14.333C14.333 7.34878 12.3175 5.33325 9.83301 5.33325V5.83325V6.33325C11.7652 6.33325 13.333 7.90106 13.333 9.83325H13.833ZM9.83301 5.83325V5.33325C7.34853 5.33325 5.33301 7.34878 5.33301 9.83325H5.83301H6.33301C6.33301 7.90106 7.90082 6.33325 9.83301 6.33325V5.83325ZM5.83301 9.83325H5.33301C5.33301 12.3177 7.34853 14.3333 9.83301 14.3333V13.8333V13.3333C7.90082 13.3333 6.33301 11.7654 6.33301 9.83325H5.83301ZM9.83301 13.8333V14.3333C12.3175 14.3333 14.333 12.3177 14.333 9.83325H13.833H13.333C13.333 11.7654 11.7652 13.3333 9.83301 13.3333V13.8333ZM13.833 9.83325M35.1663 17.8334L35.5199 17.4799L26.8532 8.81319L26.4997 9.16675L26.1461 9.5203L34.8128 18.187L35.1663 17.8334ZM26.4997 9.16675L26.1461 8.81319L15.4795 19.4799L15.833 19.8334L16.1866 20.187L26.8532 9.5203L26.4997 9.16675ZM15.833 19.8334L16.1866 19.4799L12.8532 16.1465L12.4997 16.5001L12.1461 16.8536L15.4795 20.187L15.833 19.8334ZM12.4997 16.5001L12.1461 16.1465L5.47945 22.8132L5.83301 23.1667L6.18656 23.5203L12.8532 16.8536L12.4997 16.5001ZM5.83301 23.1667H5.33301V27.1667H5.83301H6.33301V23.1667H5.83301ZM5.83301 27.1667V27.6667H35.1663V27.1667V26.6667H5.83301V27.1667ZM35.1663 27.1667H35.6663V17.8334H35.1663H34.6663V27.1667H35.1663ZM40.5 3.83333H41C41 1.72386 39.2761 0 37.1667 0V0.5V1C38.7239 1 40 2.27614 40 3.83333H40.5ZM37.1667 0.5V0H3.83333V0.5V1H37.1667V0.5ZM3.83333 0.5V0C1.72386 0 0 1.72386 0 3.83333H0.5H1C1 2.27614 2.27614 1 3.83333 1V0.5ZM0.5 3.83333H0V29.1667H0.5H1V3.83333H0.5ZM0.5 29.1667H0C0 31.2761 1.72386 33 3.83333 33V32.5V32C2.27614 32 1 30.7239 1 29.1667H0.5ZM3.83333 32.5V33H37.1667V32.5V32H3.83333V32.5ZM37.1667 32.5V33C39.2761 33 41 31.2761 41 29.1667H40.5H40C40 30.7239 38.7239 32 37.1667 32V32.5ZM40.5 29.1667H41V3.83333H40.5H40V29.1667H40.5Z" fill="#4C4C4C"/>
</svg>
