<svg width="32" height="32" viewBox="0 0 32 32" fill="none" xmlns="http://www.w3.org/2000/svg">
<path d="M1.40039 27.8145H30.5996C30.8205 27.8145 31 27.9939 31 28.2148V30.5996C31 30.8205 30.8205 31 30.5996 31H1.40039C1.17948 31 1 30.8205 1 30.5996V28.2148C1 27.9939 1.17948 27.8145 1.40039 27.8145ZM3.97754 13.6709H6.68848C7.35122 13.6709 7.88867 14.2084 7.88867 14.8711V21.9561C7.88867 22.6188 7.35122 23.1562 6.68848 23.1562H3.97754C3.31491 23.1561 2.77734 22.6187 2.77734 21.9561V14.8711C2.77734 14.2084 3.31491 13.671 3.97754 13.6709ZM14.6445 1H17.3555C18.0182 1 18.5557 1.53745 18.5557 2.2002V21.9561C18.5557 22.6188 18.0182 23.1562 17.3555 23.1562H14.6445C13.9818 23.1562 13.4443 22.6188 13.4443 21.9561V2.2002C13.4443 1.57895 13.9165 1.06742 14.5215 1.00586L14.6445 1ZM25.3115 6.43066H28.0225C28.685 6.43079 29.2224 6.96741 29.2227 7.62988V21.9561C29.2227 22.6187 28.6851 23.1561 28.0225 23.1562H25.3115C24.6488 23.1562 24.1113 22.6188 24.1113 21.9561V7.62988C24.1116 6.96733 24.6489 6.43066 25.3115 6.43066Z" stroke="#3BA3A4" stroke-width="2"/>
</svg>
