<svg width="61" height="51" viewBox="0 0 61 51" fill="none" xmlns="http://www.w3.org/2000/svg">
<path d="M3 0.5H58C59.3807 0.5 60.5 1.61929 60.5 3V48C60.5 49.3807 59.3807 50.5 58 50.5H3C1.61929 50.5 0.5 49.3807 0.5 48V3C0.5 1.61929 1.61929 0.5 3 0.5Z" fill="white" stroke="#B7BBC0"/>
<path d="M28.3706 22.6667M28.3706 22.6667M35.1839 26.0666H35.6839V25.8997L35.5836 25.7663L35.1839 26.0666ZM32.416 22.3833L32.8157 22.0829L32.416 21.551L32.0163 22.0829L32.416 22.3833ZM29.0093 26.9166L28.6096 27.217L29.0093 27.7489L29.4091 27.217L29.0093 26.9166ZM27.9448 25.5L28.3445 25.1996L27.9448 24.6677L27.545 25.1996L27.9448 25.5ZM25.8156 28.3333L25.4159 28.0329L25.3156 28.1664V28.3333H25.8156ZM25.8156 30.0333H25.3156V30.5333H25.8156V30.0333ZM35.1839 30.0333V30.5333H35.6839V30.0333H35.1839ZM28.3706 22.6667H28.8706C28.8706 22.0994 28.6983 21.5665 28.396 21.1643C28.0937 20.762 27.6381 20.4667 27.0931 20.4667V20.9667V21.4667C27.2534 21.4667 27.4365 21.5521 27.5966 21.7651C27.7568 21.9783 27.8706 22.2954 27.8706 22.6667H28.3706ZM27.0931 20.9667V20.4667C26.5481 20.4667 26.0925 20.762 25.7902 21.1643C25.4879 21.5665 25.3156 22.0994 25.3156 22.6667H25.8156H26.3156C26.3156 22.2954 26.4294 21.9783 26.5896 21.7651C26.7497 21.5521 26.9328 21.4667 27.0931 21.4667V20.9667ZM25.8156 22.6667H25.3156C25.3156 23.234 25.4879 23.7668 25.7902 24.169C26.0925 24.5713 26.5481 24.8667 27.0931 24.8667V24.3667V23.8667C26.9328 23.8667 26.7497 23.7813 26.5896 23.5682C26.4294 23.3551 26.3156 23.0379 26.3156 22.6667H25.8156ZM27.0931 24.3667V24.8667C27.6381 24.8667 28.0937 24.5713 28.396 24.169C28.6983 23.7668 28.8706 23.234 28.8706 22.6667H28.3706H27.8706C27.8706 23.0379 27.7568 23.3551 27.5966 23.5682C27.4365 23.7813 27.2534 23.8667 27.0931 23.8667V24.3667ZM28.3706 22.6667M35.1839 26.0666L35.5836 25.7663L32.8157 22.0829L32.416 22.3833L32.0163 22.6837L34.7841 26.367L35.1839 26.0666ZM32.416 22.3833L32.0163 22.0829L28.6096 26.6163L29.0093 26.9166L29.4091 27.217L32.8157 22.6837L32.416 22.3833ZM29.0093 26.9166L29.4091 26.6163L28.3445 25.1996L27.9448 25.5L27.545 25.8003L28.6096 27.217L29.0093 26.9166ZM27.9448 25.5L27.545 25.1996L25.4159 28.0329L25.8156 28.3333L26.2153 28.6337L28.3445 25.8003L27.9448 25.5ZM25.8156 28.3333H25.3156V30.0333H25.8156H26.3156V28.3333H25.8156ZM25.8156 30.0333V30.5333H35.1839V30.0333V29.5333H25.8156V30.0333ZM35.1839 30.0333H35.6839V26.0666H35.1839H34.6839V30.0333H35.1839ZM36.8872 20.1166H37.3872C37.3872 19.6282 37.2377 19.1664 36.9742 18.8158C36.711 18.4655 36.3089 18.2 35.8226 18.2V18.7V19.2C35.9219 19.2 36.0521 19.2533 36.1747 19.4165C36.2971 19.5794 36.3872 19.826 36.3872 20.1166H36.8872ZM35.8226 18.7V18.2H25.1769V18.7V19.2H35.8226V18.7ZM25.1769 18.7V18.2C24.6906 18.2 24.2885 18.4655 24.0253 18.8158C23.7618 19.1664 23.6123 19.6282 23.6123 20.1166H24.1123H24.6123C24.6123 19.826 24.7023 19.5794 24.8247 19.4165C24.9474 19.2533 25.0776 19.2 25.1769 19.2V18.7ZM24.1123 20.1166H23.6123V30.8833H24.1123H24.6123V20.1166H24.1123ZM24.1123 30.8833H23.6123C23.6123 31.3718 23.7618 31.8336 24.0253 32.1842C24.2885 32.5345 24.6906 32.8 25.1769 32.8V32.3V31.8C25.0776 31.8 24.9474 31.7467 24.8247 31.5835C24.7023 31.4206 24.6123 31.174 24.6123 30.8833H24.1123ZM25.1769 32.3V32.8H35.8226V32.3V31.8H25.1769V32.3ZM35.8226 32.3V32.8C36.3089 32.8 36.711 32.5345 36.9742 32.1842C37.2377 31.8336 37.3872 31.3718 37.3872 30.8833H36.8872H36.3872C36.3872 31.174 36.2971 31.4206 36.1747 31.5835C36.0521 31.7467 35.9219 31.8 35.8226 31.8V32.3ZM36.8872 30.8833H37.3872V20.1166H36.8872H36.3872V30.8833H36.8872Z" fill="#BBBDBF"/>
</svg>
