<svg width="20" height="20" viewBox="0 0 20 20" fill="none" xmlns="http://www.w3.org/2000/svg">
<path d="M10.0001 3.49927C9.00014 3.49927 8.03014 3.64727 7.11114 3.92427L8.34814 5.16027C10.4877 4.73662 12.7082 5.15135 14.5506 6.3187C16.393 7.48604 17.7164 9.31674 18.2471 11.4323C18.299 11.6212 18.4226 11.7824 18.5917 11.8813C18.7608 11.9802 18.9619 12.009 19.152 11.9616C19.3421 11.9142 19.506 11.7943 19.6089 11.6275C19.7117 11.4608 19.7452 11.2604 19.7021 11.0693C19.1603 8.90647 17.9113 6.98677 16.1534 5.61521C14.3956 4.24364 12.2298 3.49888 10.0001 3.49927Z" fill="#797979"/>
<path d="M4.25414 5.31427C2.28808 6.69379 0.884191 8.73484 0.299143 11.0643C0.254123 11.2561 0.286382 11.4579 0.388949 11.6261C0.491516 11.7943 0.656153 11.9154 0.84728 11.9632C1.03841 12.011 1.24067 11.9817 1.41036 11.8816C1.58006 11.7815 1.70355 11.6187 1.75414 11.4283C2.27395 9.36069 3.55174 7.56393 5.33414 6.39427C6.33419 5.7641 6.96437 5.4718 8.34814 5.16027L7.11114 3.92427C5.94465 4.32159 5.36042 4.62711 4.25414 5.31427Z" fill="#797979"/>
<circle cx="10" cy="11.0002" r="4" fill="#797979"/>
</svg>
