<svg width="48" height="48" viewBox="0 0 48 48" fill="none" xmlns="http://www.w3.org/2000/svg">
<path d="M24.04 42.5C34.255 42.5 42.5 34.215 42.5 23.96C42.5 13.745 34.255 5.5 24.04 5.5C13.785 5.5 5.5 13.745 5.5 23.96C5.5 34.215 13.785 42.5 24.04 42.5Z" stroke="#727272" stroke-linecap="round" stroke-linejoin="round"/>
<path d="M34.9242 20.4969C34.9242 20.4969 33.3442 21.0349 31.5502 20.3809C29.7622 19.7309 28.8772 18.2969 28.8772 18.2969M19.1232 18.2969C19.1232 18.2969 18.2592 19.7229 16.4632 20.3769C14.6762 21.0269 13.0762 20.4969 13.0762 20.4969M28.0222 31.5829C28.0222 31.5829 26.3972 30.1359 24.0092 30.1359C21.6312 30.1359 19.9792 31.5829 19.9792 31.5829" stroke="#727272" stroke-linecap="round" stroke-linejoin="round"/>
</svg>
