<svg width="18" height="18" viewBox="0 0 18 18" fill="none" xmlns="http://www.w3.org/2000/svg">
<path d="M0.197761 0.197409C0.0834442 0.3117 0.0139381 0.46322 0.00188114 0.62442C-0.0101758 0.785621 0.0360171 0.945795 0.132061 1.07582L0.197761 1.15142L3.8284 4.78297C2.05892 6.02456 0.79541 7.86153 0.268862 9.95804C0.228343 10.1307 0.257376 10.3123 0.349687 10.4637C0.441999 10.6151 0.590174 10.7241 0.76219 10.7671C0.934206 10.8101 1.11625 10.7838 1.26897 10.6937C1.4217 10.6036 1.53284 10.457 1.57838 10.2856C2.04621 8.42479 3.19623 6.80769 4.80041 5.75498L6.42943 7.384C5.77871 8.06396 5.42015 8.97169 5.43053 9.91279C5.44091 10.8539 5.81941 11.7535 6.48496 12.4189C7.15051 13.0844 8.05018 13.4627 8.99128 13.4729C9.93237 13.4831 10.84 13.1244 11.5199 12.4736L16.847 17.8016C16.9675 17.9224 17.1292 17.9931 17.2996 17.9995C17.4701 18.0059 17.6366 17.9476 17.7658 17.8362C17.895 17.7248 17.9772 17.5686 17.9959 17.3991C18.0146 17.2296 17.9685 17.0592 17.8667 16.9223L17.801 16.8467L12.2993 11.3441L12.3002 11.3423L6.04512 5.09077L6.04692 5.08897L5.02721 4.07196L1.15177 0.197409C1.02521 0.0710016 0.853644 0 0.674766 0C0.495889 0 0.324325 0.0710016 0.197761 0.197409ZM8.99985 3.14945C8.09984 3.14945 7.22683 3.28265 6.39973 3.53195L7.51304 4.64437C9.43865 4.26308 11.4372 4.63634 13.0953 5.68697C14.7535 6.73759 15.9446 8.38524 16.4222 10.2892C16.4689 10.4593 16.5802 10.6043 16.7324 10.6934C16.8845 10.7824 17.0655 10.8083 17.2366 10.7657C17.4077 10.723 17.5553 10.6151 17.6478 10.465C17.7403 10.3149 17.7705 10.1346 17.7317 9.96254C17.2441 8.01599 16.12 6.28824 14.5379 5.05382C12.9558 3.81939 11.0065 3.1491 8.99985 3.14945ZM9.17535 6.30849L12.5963 9.72853C12.552 8.83563 12.1774 7.99107 11.5452 7.359C10.9129 6.72693 10.0683 6.35251 9.17535 6.30849Z" fill="#797979"/>
</svg>
