<svg width="32" height="32" viewBox="0 0 32 32" fill="none" xmlns="http://www.w3.org/2000/svg">
<g clip-path="url(#clip0_2590_20958)">
<path d="M0 15.36C0 8.1192 0 4.49884 2.24942 2.24942C4.49884 0 8.1192 0 15.36 0H16.64C23.8808 0 27.5011 0 29.7506 2.24942C32 4.49884 32 8.1192 32 15.36V16.64C32 23.8808 32 27.5011 29.7506 29.7506C27.5011 32 23.8808 32 16.64 32H15.36C8.1192 32 4.49884 32 2.24942 29.7506C0 27.5011 0 23.8808 0 16.64V15.36Z" fill="url(#paint0_linear_2590_20958)"/>
<path fill-rule="evenodd" clip-rule="evenodd" d="M7.24138 15.8309C11.9057 13.7988 15.016 12.459 16.5722 11.8117C21.0156 9.96359 21.9389 9.64255 22.5407 9.63195C22.673 9.62962 22.969 9.66242 23.1607 9.81797C23.3225 9.94931 23.3671 10.1267 23.3884 10.2513C23.4097 10.3758 23.4362 10.6595 23.4152 10.8811C23.1744 13.4111 22.1325 19.5507 21.6024 22.3843C21.3781 23.5833 20.9365 23.9853 20.509 24.0247C19.5798 24.1102 18.8743 23.4106 17.9743 22.8207C16.5661 21.8976 15.7706 21.323 14.4037 20.4222C12.824 19.3812 13.848 18.8091 14.7483 17.874C14.9839 17.6293 19.0778 13.9056 19.157 13.5678C19.1669 13.5256 19.1761 13.3681 19.0825 13.285C18.989 13.2018 18.8509 13.2302 18.7513 13.2529C18.61 13.2849 16.3604 14.7718 12.0024 17.7136C11.3638 18.1521 10.7855 18.3657 10.2672 18.3545C9.69596 18.3422 8.59704 18.0315 7.78011 17.766C6.77811 17.4403 5.98174 17.2681 6.05108 16.7149C6.0872 16.4268 6.48397 16.1321 7.24138 15.8309Z" fill="white"/>
</g>
<defs>
<linearGradient id="paint0_linear_2590_20958" x1="16" y1="0" x2="16" y2="31.7627" gradientUnits="userSpaceOnUse">
<stop stop-color="#2AABEE"/>
<stop offset="1" stop-color="#229ED9"/>
</linearGradient>
<clipPath id="clip0_2590_20958">
<rect width="32" height="32" fill="white"/>
</clipPath>
</defs>
</svg>
